<svg width="30" height="26" viewBox="0 0 30 26" fill="none" xmlns="http://www.w3.org/2000/svg"><path d="M15 25.75C14.6715 25.75 12.27 23.83 11.805 23.2825C11.439 23.842 10.839 24.4765 10.839 24.4765C9.18152 23.641 7.06352 21.4675 6.66452 20.707C6.27152 19.957 4.84502 11.32 4.80602 8.81195C4.75502 7.40045 5.68351 4.53845 15 4.53845C24.3165 4.53845 25.2435 7.40045 25.194 8.81195C25.1565 11.32 23.73 19.957 23.3355 20.707C22.9365 21.4675 20.8185 23.641 19.161 24.4765C19.161 24.4765 18.561 23.842 18.195 23.2825C17.73 23.83 15.3285 25.75 15 25.75Z" fill="#1EBCA1"></path><path d="M15 20.188C11.8905 20.188 9.90601 18.5455 9.90601 18.5455L10.1925 14.545L6.93001 14.254L6.34351 9.52148H23.658L23.0715 14.254L19.809 14.545L20.0955 18.5455C20.0955 18.5455 18.111 20.188 15.0015 20.188H15Z" fill="#183134"></path><path d="M18.222 11.6185L30 7.5415C29.2995 3.3505 25.626 0.25 25.626 0.25V4.867L23.445 5.4295L22.0785 3.784L20.9085 6.085L15.0015 7.609L9.0945 6.085L7.9245 3.784L6.558 5.4295L4.377 4.867V0.25C4.377 0.25 0.7005 3.3505 0 7.5415L11.778 11.6185L11.358 17.227C12.363 17.482 13.4205 17.7355 15 17.7355C16.5795 17.7355 17.6355 17.482 18.6405 17.227L18.2205 11.6185H18.222Z" fill="#4FF8D2"></path></svg>