<svg width="630" height="662" viewBox="0 0 630 662" fill="none" xmlns="http://www.w3.org/2000/svg">
<path d="M9.03223 118L19.0372 230.093L63.9332 242.494L108.953 230.107L118.968 118H9.03223ZM98.1582 144.539L97.5312 151.711L97.2552 155H44.5902L45.8472 169H96.0032L95.6672 172.471L92.4342 208.59L92.1962 210.86L64.0002 218.609V218.611L63.9662 218.629L35.7892 211.206L33.8762 190H47.6912L48.6702 200.919L63.9572 205H64.0002V204.454L79.3552 200.579L80.9592 183H33.2612L29.8782 144.883L29.5492 141H98.4882L98.1582 144.539Z" fill="#E44D26"/>
<g clip-path="url(#clip0_504_142)">
<path d="M306.958 0.826598C306.039 0.300319 304.999 0.0234375 303.941 0.0234375C302.882 0.0234375 301.842 0.300319 300.923 0.826598L251.103 29.7616C249.208 30.8336 248.143 32.8566 248.143 35.0016V92.9896C248.143 95.1326 249.326 97.1566 251.101 98.2296L300.921 127.164C301.84 127.69 302.88 127.967 303.939 127.967C304.998 127.967 306.038 127.69 306.957 127.164L356.777 98.2286C358.671 97.1566 359.735 95.1326 359.735 92.9886V35.0016C359.735 32.8576 358.552 30.8346 356.777 29.7616L306.958 0.826598Z" fill="url(#paint0_linear_504_142)"/>
<path d="M356.897 29.7605L306.841 0.825469C306.349 0.575652 305.834 0.3763 305.302 0.230469L249.21 96.7985C249.674 97.3689 250.235 97.853 250.867 98.2285L300.924 127.162C302.344 127.995 304 128.234 305.539 127.757L358.199 30.8325C357.853 30.3797 357.408 30.0129 356.897 29.7605Z" fill="url(#paint1_linear_504_142)"/>
<path d="M356.898 98.2253C358.318 97.3923 359.383 95.9633 359.856 94.4153L305.066 0.108259C303.646 -0.129741 302.107 -0.0107412 300.806 0.823259L251.104 29.6393L304.71 127.994C305.42 127.874 306.25 127.636 306.96 127.279L356.898 98.2253Z" fill="url(#paint2_linear_504_142)"/>
</g>
<path d="M565.391 104.247C561.169 104.267 557.139 104.626 553.591 105.254C543.141 107.1 541.245 110.964 541.245 118.091V127.502H565.938V130.639H531.977C524.801 130.639 518.517 134.952 516.551 143.16C514.283 152.565 514.183 158.435 516.551 168.256C518.306 175.567 522.498 180.775 529.675 180.775H538.166V169.493C538.166 161.342 545.217 154.153 553.592 154.153H578.257C585.123 154.153 590.603 148.499 590.603 141.605V118.092C590.603 111.399 584.957 106.372 578.257 105.255C574.013 104.549 569.612 104.228 565.391 104.247ZM552.037 111.816C554.587 111.816 556.671 113.933 556.671 116.537C556.671 119.13 554.588 121.227 552.037 121.227C549.477 121.227 547.404 119.13 547.404 116.537C547.403 113.933 549.477 111.816 552.037 111.816Z" fill="url(#paint3_linear_504_142)"/>
<path d="M593.682 130.642V141.608C593.682 150.108 586.474 157.263 578.256 157.263H553.591C546.835 157.263 541.245 163.046 541.245 169.812V193.327C541.245 200.018 547.063 203.955 553.591 205.874C561.407 208.171 568.903 208.587 578.256 205.874C584.472 204.073 590.602 200.451 590.602 193.327V183.915H565.938V180.777H602.95C610.126 180.777 612.802 175.772 615.298 168.258C617.876 160.523 617.765 153.084 615.298 143.162C613.524 136.017 610.137 130.641 602.95 130.641L593.682 130.642ZM579.809 190.189C582.37 190.189 584.443 192.286 584.443 194.881C584.443 197.483 582.369 199.6 579.809 199.6C577.259 199.6 575.176 197.483 575.176 194.881C575.176 192.286 577.259 190.189 579.809 190.189Z" fill="url(#paint4_linear_504_142)"/>
<path opacity="0.444" d="M599.309 211.597C599.309 215.14 584.493 218.013 566.218 218.013C547.942 218.013 533.126 215.14 533.126 211.597C533.126 208.053 547.941 205.18 566.218 205.18C584.493 205.18 599.309 208.052 599.309 211.597Z" fill="url(#paint5_radial_504_142)"/>
<g clip-path="url(#clip1_504_142)">
<path d="M62.9598 386.242C62.7278 386.377 61.7568 387.77 60.7998 389.339C58.3998 393.279 58.3738 393.281 55.1498 389.889C53.0518 387.681 52.5448 387.277 51.8698 387.282C51.4298 387.284 50.8748 387.434 50.6348 387.614C50.3948 387.794 49.7188 389.226 49.1308 390.797C47.7848 394.397 47.7208 394.512 46.9748 394.657C46.5148 394.743 45.6318 394.25 43.5118 392.728C41.9468 391.603 40.4118 390.683 40.1008 390.683C38.8098 390.683 38.4458 391.389 37.8308 395.083C37.0508 399.78 37.0768 399.764 32.8428 397.841C31.1328 397.065 29.5128 396.431 29.2398 396.431C28.9658 396.431 28.4478 396.724 28.0898 397.083C27.4378 397.735 27.4368 397.738 27.6148 401.329L27.7928 404.924L27.1129 405.288C26.5109 405.61 26.0959 405.571 23.4289 404.94C19.9489 404.118 19.2129 404.14 18.5089 405.09L17.9928 405.783L18.6848 408.747C19.0648 410.377 19.4298 411.947 19.4988 412.234C19.5658 412.521 19.4488 412.98 19.2388 413.254C18.8908 413.702 18.5218 413.744 15.2988 413.694C9.84685 413.608 9.53785 414.076 11.7888 418.994C12.5068 420.554 13.0938 421.974 13.0938 422.144C13.0938 423.042 12.3768 423.368 9.29985 423.871C7.57785 424.151 6.08185 424.381 5.97385 424.381C5.86685 424.381 5.54385 424.616 5.25685 424.903C4.31985 425.839 4.58585 426.719 6.70985 429.717C9.35585 433.452 9.35185 433.467 4.97985 435.138C0.00884867 437.04 -0.0921512 437.508 3.69285 441.098C7.21785 444.442 7.22285 444.393 3.23185 446.902C0.207849 448.8 0.161849 448.846 0.0848489 449.876C-0.00815106 451.129 0.0138488 451.151 3.62285 453.356C7.19285 455.536 7.19285 455.602 3.68985 458.916C-0.078151 462.48 0.0378489 463 5.01285 464.877C9.35985 466.517 9.36585 466.537 6.71485 470.271C5.21285 472.388 4.73385 473.271 4.73385 473.924C4.73385 475.147 5.37085 475.459 9.17385 476.098C12.3798 476.638 13.0938 476.955 13.0938 477.839C13.0938 478.021 12.5058 479.451 11.7868 481.016C9.55085 485.886 9.80585 486.291 15.0968 486.291C20.0268 486.291 19.8958 486.141 18.8338 490.585C18.0338 493.935 18.0208 494.577 18.7458 495.3C19.2998 495.856 20.3458 495.794 23.6158 495.011C26.1148 494.415 26.5528 494.374 27.1318 494.683L27.7918 495.037L27.6148 498.631C27.4368 502.224 27.4378 502.226 28.0898 502.879C28.4478 503.239 28.9738 503.531 29.2548 503.531C29.5368 503.531 31.1578 502.901 32.8588 502.127C37.0788 500.211 37.0528 500.195 37.8318 504.877C38.4488 508.588 38.8088 509.277 40.1258 509.277C40.4528 509.277 41.9558 508.397 43.4658 507.319C46.1198 505.426 46.8078 505.129 47.5148 505.579C47.6968 505.694 48.4048 507.249 49.0868 509.034C50.0898 511.659 50.4568 512.344 51.0158 512.61C52.0778 513.12 52.7358 512.71 55.2338 509.99C58.2498 506.704 58.3738 506.72 60.8358 510.71C63.5558 515.116 64.2598 515.106 67.0478 510.621C69.4498 506.757 69.4218 506.759 72.6688 510.151C74.8258 512.401 75.2848 512.761 76.0118 512.761C76.4758 512.761 77.0308 512.586 77.2418 512.373C77.4558 512.16 78.1618 510.587 78.8098 508.877C79.4588 507.167 80.1308 505.677 80.3048 505.567C80.9918 505.131 81.7028 505.437 84.3528 507.319C85.9128 508.427 87.3809 509.279 87.7299 509.279C89.0259 509.279 89.4938 508.359 90.0318 504.744C90.4918 501.662 90.5858 501.366 91.1918 501.059C91.7878 500.757 92.1458 500.859 94.9418 502.129C96.6428 502.899 98.2648 503.531 98.5458 503.531C98.8278 503.531 99.3619 503.229 99.7299 502.859L100.402 502.189L100.218 498.741C100.041 495.451 100.058 495.273 100.582 494.798C101.122 494.31 101.178 494.312 104.197 495.002C107.853 495.837 108.535 495.859 109.222 495.172C109.893 494.502 109.886 494.354 108.968 490.482C107.938 486.136 107.8 486.292 112.748 486.292C116.122 486.292 116.498 486.243 116.928 485.769C117.646 484.976 117.475 484.067 116.032 480.99C115.303 479.44 114.712 478.03 114.717 477.855C114.741 476.941 115.46 476.628 118.782 476.088C120.815 475.759 122.335 475.378 122.611 475.128C123.534 474.295 123.195 473.21 121.088 470.255C118.446 466.552 118.458 466.517 122.687 464.958C127.751 463.092 127.896 462.47 124.106 458.868C120.596 455.533 120.594 455.551 124.439 453.191C129.087 450.338 129.094 449.695 124.521 446.856C120.588 444.416 120.591 444.45 124.116 441.103C127.896 437.51 127.794 437.04 122.821 435.138C118.433 433.459 118.419 433.418 121.086 429.758C122.674 427.578 123.068 426.855 123.068 426.108C123.068 424.802 122.482 424.51 118.632 423.888C115.416 423.368 114.708 423.053 114.708 422.138C114.708 421.964 115.296 420.564 116.015 419.025C117.421 416.012 117.619 414.805 116.823 414.085C116.395 413.698 115.823 413.642 112.756 413.693C109.548 413.747 109.138 413.701 108.693 413.254C108.207 412.766 108.213 412.697 108.971 409.529C109.902 405.649 109.906 405.554 109.141 404.835C108.364 404.105 107.879 404.117 104.315 404.956C101.718 405.568 101.288 405.609 100.698 405.293L100.028 404.933L100.213 401.351L100.399 397.771L99.7288 397.101C99.3598 396.731 98.8378 396.431 98.5658 396.431C98.2958 396.431 96.6818 397.071 94.9828 397.852C92.1448 399.158 91.8398 399.245 91.2258 398.924C90.6138 398.604 90.5118 398.287 89.9888 395.095C89.3858 391.402 89.0118 390.683 87.7008 390.683C87.3898 390.683 85.8478 391.608 84.2748 392.738C81.6908 394.594 81.3448 394.77 80.7008 394.545C80.1678 394.359 79.8579 393.955 79.4799 392.946C79.1999 392.204 78.6629 390.774 78.2859 389.769C77.5239 387.741 77.0988 387.287 75.9578 387.287C75.3208 387.287 74.7448 387.745 72.6778 389.891C69.4278 393.266 69.4168 393.265 67.0278 389.346C66.0728 387.78 65.0748 386.382 64.8098 386.24C64.2128 385.92 63.5098 385.92 62.9598 386.242ZM65.9198 398.04C68.7498 400.054 67.2458 404.79 63.7758 404.79C60.4078 404.79 58.7118 400.733 61.1158 398.43C62.4738 397.13 64.4188 396.971 65.9198 398.04ZM62.3628 410.547C64.2178 411.252 64.9788 410.829 69.2148 406.747L72.3969 403.677L73.7439 403.857C77.9689 404.417 86.3708 408.107 91.1988 411.523C95.6348 414.663 101.531 421.057 104.044 425.453L104.581 426.395L102.201 431.759C100.891 434.709 99.8188 437.432 99.8188 437.812C99.8188 438.69 100.395 440.079 100.949 440.538C101.183 440.733 103.406 441.803 105.888 442.916L110.398 444.941L110.576 446.089C110.806 447.584 110.836 451.256 110.628 452.299L110.465 453.115H107.89C104.903 453.115 105.134 452.848 104.972 456.511C104.854 459.167 104.212 460.635 102.752 461.586C100.375 463.137 96.4478 462.856 94.7818 461.016C94.5268 460.732 94.0298 459.311 93.6768 457.856C92.6468 453.602 91.2638 451.216 88.4838 448.891C87.6058 448.158 86.8888 447.473 86.8888 447.369C86.8888 447.267 87.8538 446.454 89.0338 445.566C93.3318 442.326 95.8038 438.554 96.0738 434.819C96.5928 427.693 90.9158 421.052 82.4718 418.899C80.4698 418.389 79.6148 418.373 54.8478 418.373C40.7908 418.373 29.2878 418.281 29.2878 418.169C29.2878 417.906 32.4128 414.874 34.2528 413.353C39.3068 409.175 45.8708 405.888 52.6698 404.133L55.0198 403.523L58.3598 406.91C60.1988 408.773 61.9998 410.41 62.3628 410.547ZM20.2998 432.34C21.8388 433.348 22.4698 435.88 21.5598 437.402C20.1548 439.758 16.5938 439.857 15.1868 437.58C13.1408 434.271 17.0818 430.231 20.2998 432.34ZM110.972 432.47C114.998 434.924 111.878 440.963 107.568 439.056C104.691 437.783 104.598 433.85 107.413 432.416C108.587 431.816 109.936 431.837 110.973 432.469M32.1628 447.5V462.52H18.8828L18.3568 460.235C17.3208 455.735 16.8848 451.079 17.1458 447.266L17.3278 444.587L21.8928 442.54C24.7568 441.257 26.5988 440.278 26.8358 439.915C27.8738 438.331 27.7759 437.2 26.3179 433.982L25.6378 432.48H32.1608V447.5M70.3898 433.132C73.2328 433.872 74.7348 435.377 74.7388 437.487C74.7408 439.037 73.9738 440.007 72.0688 440.867C70.7208 441.477 70.5068 441.492 62.0058 441.575L53.3198 441.659V432.739H61.1018C67.1798 432.739 69.2138 432.825 70.3898 433.132ZM67.4558 454.686C68.8658 455.078 70.5318 456.302 71.3858 457.574C72.2838 458.911 72.8088 460.65 74.0528 466.41C75.1028 471.28 75.7798 472.87 77.6728 474.942C80.0178 477.508 79.4728 477.408 91.1868 477.408C96.7968 477.408 101.385 477.498 101.385 477.608C101.385 477.805 97.5219 482.372 97.3549 482.372C97.3069 482.372 95.2888 481.95 92.8708 481.433C86.0418 479.975 85.7958 480.146 84.2288 487.465L83.2208 492.167L82.3108 492.615C80.7928 493.365 75.8578 494.907 73.3008 495.435C69.0728 496.305 64.4728 496.597 60.4298 496.256C53.5368 495.671 44.4098 492.997 44.0528 491.456C43.9778 491.129 43.5178 489.013 43.0348 486.752C42.5498 484.492 41.9608 482.348 41.7248 481.988C40.5948 480.264 39.4068 480.158 34.1778 481.314C32.1978 481.754 30.4698 482.11 30.3378 482.11C30.0898 482.11 26.4149 477.861 26.4149 477.575C26.4149 477.485 35.1428 477.381 45.8108 477.345L65.2058 477.279L65.2758 470.389C65.3258 465.524 65.2578 463.392 65.0458 463.139C64.8118 462.855 63.5608 462.781 59.0348 462.781H53.3198V454.421L59.9168 454.422C63.5428 454.424 66.9368 454.542 67.4558 454.686ZM37.5698 486.02C40.6538 487.9 39.1748 492.824 35.5268 492.82C31.7868 492.82 30.3998 487.94 33.5868 485.994C34.6418 485.351 36.4948 485.364 37.5698 486.02ZM94.0499 486.226C95.5619 487.334 96.0648 489.639 95.1288 491.176C92.6688 495.21 86.5168 492.003 88.5718 487.757C89.5818 485.672 92.2669 484.919 94.0499 486.226Z" fill="white"/>
</g>
<g clip-path="url(#clip2_504_142)">
<path d="M333.431 300.936C321.553 283.924 298.089 278.882 281.131 289.696L251.338 308.696C247.308 311.225 243.849 314.567 241.183 318.51C238.517 322.453 236.704 326.909 235.858 331.593C235.481 333.695 235.29 335.839 235.286 337.989C235.304 343.82 236.733 349.56 239.45 354.719C236.903 358.591 235.164 362.939 234.339 367.501C233.494 372.269 233.612 377.211 234.684 381.913C235.757 386.646 237.762 391.117 240.585 395.065C252.462 412.076 275.978 417.118 292.884 406.305L322.646 387.304C326.674 384.772 330.128 381.426 332.787 377.479C335.446 373.532 337.25 369.072 338.084 364.386C338.467 362.279 338.659 360.142 338.656 358C338.649 352.18 337.239 346.449 334.544 341.291C337.091 337.422 338.829 333.078 339.656 328.52C340.025 326.411 340.213 324.275 340.218 322.134C340.22 314.539 337.847 307.134 333.431 300.956V300.936Z" fill="#FF3E00"/>
<path d="M278.219 396.662C276.262 397.167 274.266 397.421 272.265 397.422C268.444 397.423 264.68 396.497 261.295 394.722C257.91 392.948 255.006 390.379 252.83 387.235C250.174 383.519 248.748 379.064 248.75 374.495C248.752 373.207 248.863 371.923 249.083 370.662C249.261 369.714 249.502 368.783 249.802 367.88L250.364 366.172L251.883 367.328C255.411 369.919 259.354 371.892 263.541 373.162L264.646 373.495L264.542 374.599V375.172C264.539 376.553 264.969 377.902 265.77 379.026C266.417 379.984 267.288 380.77 268.308 381.314C269.352 381.865 270.479 382.15 271.62 382.151C272.222 382.154 272.822 382.077 273.41 381.922C274.048 381.755 274.664 381.485 275.243 381.12L305.003 362.026C305.895 361.46 306.631 360.677 307.139 359.75C307.646 358.823 307.91 357.782 307.907 356.724C307.899 355.343 307.458 353.999 306.647 352.88C305.99 351.934 305.114 351.162 304.094 350.628C303.049 350.089 301.923 349.813 300.787 349.818C300.185 349.816 299.584 349.893 298.996 350.048C298.361 350.211 297.748 350.481 297.175 350.849L285.829 358.099C283.92 359.302 281.886 360.195 279.781 360.755C277.835 361.257 275.836 361.513 273.827 361.515C270.006 361.515 266.244 360.589 262.859 358.817C259.475 357.045 256.57 354.479 254.392 351.339C251.739 347.621 250.312 343.167 250.312 338.599C250.313 337.314 250.425 336.032 250.644 334.766C251.154 331.95 252.242 329.271 253.841 326.899C255.439 324.526 257.513 322.512 259.93 320.985L289.722 301.995C291.591 300.805 293.63 299.905 295.77 299.328C297.716 298.829 299.715 298.578 301.724 298.578C305.553 298.568 309.327 299.488 312.723 301.259C316.119 303.029 319.035 305.599 321.221 308.745C323.857 312.472 325.266 316.929 325.249 321.495C325.248 322.787 325.136 324.075 324.916 325.339C324.738 326.287 324.497 327.217 324.197 328.12L323.635 329.828L322.116 328.714C318.59 326.119 314.647 324.146 310.458 322.88L309.354 322.537L309.458 321.432V320.86C309.458 319.475 309.029 318.125 308.23 316.995C307.573 316.05 306.7 315.279 305.68 314.745C304.637 314.206 303.514 313.929 302.379 313.932C301.783 313.945 301.19 314.036 300.61 314.203C299.971 314.364 299.354 314.634 298.778 315.005L268.986 333.995C268.279 334.436 267.655 335.045 267.149 335.785C266.678 336.476 266.348 337.29 266.186 338.162C266.113 338.524 266.068 338.894 266.051 339.266C266.05 340.644 266.479 341.988 267.279 343.11C267.934 344.055 268.809 344.827 269.828 345.36C270.87 345.9 271.994 346.176 273.129 346.172C273.731 346.174 274.331 346.097 274.919 345.942C275.558 345.78 276.175 345.511 276.752 345.141L288.119 337.849C290.028 336.644 292.061 335.751 294.167 335.193C296.124 334.689 298.119 334.435 300.12 334.433C303.942 334.433 307.707 335.358 311.093 337.13C314.479 338.902 317.386 341.469 319.566 344.61C322.218 348.327 323.645 352.781 323.646 357.35C323.649 358.649 323.534 359.946 323.303 361.224C322.796 364.041 321.709 366.721 320.111 369.094C318.511 371.466 316.437 373.479 314.017 375.005L284.277 393.995C282.366 395.204 280.328 396.101 278.219 396.662Z" fill="white"/>
</g>
<g clip-path="url(#clip3_504_142)">
<path d="M532.004 373.602C514.937 373.602 504.274 382.132 500.004 399.199C506.402 390.668 513.871 387.469 522.402 389.602C527.273 390.816 530.754 394.348 534.609 398.262C540.883 404.629 548.145 412 564.004 412C581.07 412 591.734 403.469 596.004 386.398C589.605 394.934 582.137 398.133 573.605 396C568.735 394.785 565.258 391.254 561.398 387.34C555.128 380.973 547.868 373.602 532.004 373.602ZM500.004 412C482.938 412 472.274 420.531 468.004 437.602C474.402 429.066 481.87 425.867 490.402 428C495.273 429.215 498.754 432.746 502.609 436.66C508.883 443.027 516.145 450.398 532.004 450.398C549.07 450.398 559.734 441.868 564.004 424.801C557.605 433.332 550.137 436.531 541.605 434.398C536.735 433.184 533.258 429.652 529.398 425.738C523.128 419.371 515.868 412 500.004 412Z" fill="#38BDF8"/>
</g>
<path d="M253.67 581H353.34V654.67H253.67V581Z" fill="white"/>
<path d="M232.5 597.91V660.41H357.5V535.41H232.5V597.91ZM333.23 592.91C336.224 593.605 338.945 595.171 341.05 597.41C342.209 598.617 343.216 599.96 344.05 601.41C344.05 601.57 338.65 605.22 335.36 607.26C335.24 607.34 334.76 606.82 334.23 606.03C333.629 604.994 332.776 604.127 331.75 603.509C330.723 602.892 329.557 602.545 328.36 602.5C324.57 602.24 322.13 604.23 322.15 607.5C322.119 608.314 322.305 609.122 322.69 609.84C323.52 611.57 325.07 612.6 329.93 614.7C338.88 618.55 342.71 621.09 345.09 624.7C347.75 628.7 348.34 635.16 346.54 639.94C344.54 645.14 339.64 648.67 332.71 649.84C329.545 650.203 326.347 650.169 323.19 649.74C318.352 648.943 313.895 646.62 310.47 643.11C309.32 641.84 307.08 638.53 307.22 638.29C307.585 638.019 307.969 637.775 308.37 637.56L313 635L316.59 632.92L317.34 634.03C318.606 635.841 320.217 637.384 322.08 638.57C326.08 640.67 331.54 640.38 334.24 637.95C335.147 637.06 335.712 635.88 335.838 634.615C335.964 633.351 335.643 632.082 334.93 631.03C333.93 629.64 331.93 628.47 326.34 626.03C319.89 623.25 317.11 621.53 314.57 618.79C312.984 616.982 311.814 614.849 311.14 612.54C310.638 609.903 310.563 607.201 310.92 604.54C312.25 598.31 316.92 593.96 323.74 592.67C326.898 592.279 330.098 592.367 333.23 592.93V592.91ZM303.89 598.15V603.27H287.66V649.5H276.15V603.26H259.88V598.26C259.829 596.536 259.869 594.81 260 593.09C260.08 593 270 593 282 593H303.83L303.89 598.15Z" fill="#007ACC"/>
<defs>
<linearGradient id="paint0_linear_504_142" x1="324.229" y1="22.3741" x2="278.73" y2="114.614" gradientUnits="userSpaceOnUse">
<stop stop-color="#3F873F"/>
<stop offset="0.33" stop-color="#3F8B3D"/>
<stop offset="0.637" stop-color="#3E9638"/>
<stop offset="0.934" stop-color="#3DA92E"/>
<stop offset="1" stop-color="#3DAE2B"/>
</linearGradient>
<linearGradient id="paint1_linear_504_142" x1="296.371" y1="70.7663" x2="423.316" y2="-22.4513" gradientUnits="userSpaceOnUse">
<stop offset="0.138" stop-color="#3F873F"/>
<stop offset="0.402" stop-color="#52A044"/>
<stop offset="0.713" stop-color="#64B749"/>
<stop offset="0.908" stop-color="#6ABF4B"/>
</linearGradient>
<linearGradient id="paint2_linear_504_142" x1="246.32" y1="63.9747" x2="361.6" y2="63.9747" gradientUnits="userSpaceOnUse">
<stop offset="0.092" stop-color="#6ABF4B"/>
<stop offset="0.287" stop-color="#64B749"/>
<stop offset="0.598" stop-color="#52A044"/>
<stop offset="0.862" stop-color="#3F873F"/>
</linearGradient>
<linearGradient id="paint3_linear_504_142" x1="512.337" y1="107.19" x2="569.291" y2="155.759" gradientUnits="userSpaceOnUse">
<stop stop-color="#5A9FD4"/>
<stop offset="1" stop-color="#306998"/>
</linearGradient>
<linearGradient id="paint4_linear_504_142" x1="590.719" y1="185.954" x2="570.294" y2="157.312" gradientUnits="userSpaceOnUse">
<stop stop-color="#FFD43B"/>
<stop offset="1" stop-color="#FFE873"/>
</linearGradient>
<radialGradient id="paint5_radial_504_142" cx="0" cy="0" r="1" gradientUnits="userSpaceOnUse" gradientTransform="translate(566.084 211.413) rotate(-90) scale(6.41832 28.2139)">
<stop stop-color="#B8B8B8" stop-opacity="0.498"/>
<stop offset="1" stop-color="#7F7F7F" stop-opacity="0"/>
</radialGradient>
<clipPath id="clip0_504_142">
<rect width="128" height="128" fill="white" transform="translate(240)"/>
</clipPath>
<clipPath id="clip1_504_142">
<rect width="128" height="128" fill="white" transform="translate(0 386)"/>
</clipPath>
<clipPath id="clip2_504_142">
<rect width="128" height="128" fill="white" transform="translate(223 284)"/>
</clipPath>
<clipPath id="clip3_504_142">
<rect width="128" height="128" fill="white" transform="translate(468 348)"/>
</clipPath>
</defs>
</svg>
