<svg width="205" height="200" viewBox="0 0 205 200" fill="none" xmlns="http://www.w3.org/2000/svg">
<g clip-path="url(#clip0_480_140)">
<path fill-rule="evenodd" clip-rule="evenodd" d="M101.89 0C45.5474 0 0 45.8333 0 102.535C0 147.86 29.1838 186.227 69.6694 199.806C74.7312 200.827 76.5853 197.6 76.5853 194.885C76.5853 192.508 76.4184 184.36 76.4184 175.871C48.0751 181.983 42.1729 163.648 42.1729 163.648C37.618 151.765 30.869 148.71 30.869 148.71C21.5922 142.429 31.5447 142.429 31.5447 142.429C41.835 143.108 47.2347 152.954 47.2347 152.954C56.3425 168.571 71.0188 164.158 76.9232 161.442C77.7657 154.821 80.4666 150.238 83.3343 147.692C60.7285 145.315 36.9443 136.488 36.9443 97.1021C36.9443 85.8979 40.9904 76.7313 47.4015 69.6021C46.39 67.0563 42.8465 56.5292 48.4151 42.4396C48.4151 42.4396 57.0182 39.7229 76.4164 52.9646C84.7214 50.7201 93.2862 49.5784 101.89 49.5688C110.493 49.5688 119.263 50.7583 127.361 52.9646C146.762 39.7229 155.365 42.4396 155.365 42.4396C160.933 56.5292 157.388 67.0563 156.376 69.6021C162.956 76.7313 166.835 85.8979 166.835 97.1021C166.835 136.488 143.051 145.144 120.277 147.692C123.989 150.917 127.192 157.027 127.192 166.704C127.192 180.454 127.025 191.49 127.025 194.883C127.025 197.6 128.882 200.827 133.941 199.808C174.427 186.225 203.611 147.86 203.611 102.535C203.778 45.8333 158.063 0 101.89 0Z" fill="#EFF6E0"/>
</g>
<defs>
<clipPath id="clip0_480_140">
<rect width="204.389" height="200" fill="white"/>
</clipPath>
</defs>
</svg>
