<svg width="200" height="200" viewBox="0 0 200 200" fill="none" xmlns="http://www.w3.org/2000/svg">
<path d="M176.19 0H23.8095C10.6667 0 0 10.6667 0 23.8095V176.19C0 189.333 10.6667 200 23.8095 200H176.19C189.333 200 200 189.333 200 176.19V23.8095C200 10.6667 189.333 0 176.19 0ZM61.9048 76.1905V166.667H33.3333V76.1905H61.9048ZM33.3333 49.8571C33.3333 43.1905 39.0476 38.0952 47.619 38.0952C56.1905 38.0952 61.5714 43.1905 61.9048 49.8571C61.9048 56.5238 56.5714 61.9048 47.619 61.9048C39.0476 61.9048 33.3333 56.5238 33.3333 49.8571ZM166.667 166.667H138.095C138.095 166.667 138.095 122.571 138.095 119.048C138.095 109.524 133.333 100 121.429 99.8095H121.048C109.524 99.8095 104.762 109.619 104.762 119.048C104.762 123.381 104.762 166.667 104.762 166.667H76.1905V76.1905H104.762V88.381C104.762 88.381 113.952 76.1905 132.429 76.1905C151.333 76.1905 166.667 89.1905 166.667 115.524V166.667Z" fill="#EFF6E0"/>
</svg>
